<svg version="1.1" xmlns="http://www.w3.org/2000/svg" style="display: block;" viewBox="0 0 2048 1170" width="1344" height="768" preserveAspectRatio="none">
<defs>
	<linearGradient id="Gradient1" gradientUnits="userSpaceOnUse" x1="432.929" y1="729.021" x2="440.117" y2="768.711">
		<stop class="stop0" offset="0" stop-opacity="1" stop-color="rgb(120,65,146)"/>
		<stop class="stop1" offset="1" stop-opacity="1" stop-color="rgb(144,90,176)"/>
	</linearGradient>
	<linearGradient id="Gradient2" gradientUnits="userSpaceOnUse" x1="453.231" y1="793.938" x2="461.651" y2="825.172">
		<stop class="stop0" offset="0" stop-opacity="1" stop-color="rgb(36,16,63)"/>
		<stop class="stop1" offset="1" stop-opacity="1" stop-color="rgb(60,29,103)"/>
	</linearGradient>
	<linearGradient id="Gradient3" gradientUnits="userSpaceOnUse" x1="381.082" y1="767.327" x2="391.487" y2="860.735">
		<stop class="stop0" offset="0" stop-opacity="1" stop-color="rgb(95,64,147)"/>
		<stop class="stop1" offset="1" stop-opacity="1" stop-color="rgb(128,113,170)"/>
	</linearGradient>
	<linearGradient id="Gradient4" gradientUnits="userSpaceOnUse" x1="456.123" y1="586.483" x2="468.346" y2="604.287">
		<stop class="stop0" offset="0" stop-opacity="1" stop-color="rgb(239,244,245)"/>
		<stop class="stop1" offset="1" stop-opacity="1" stop-color="rgb(209,223,250)"/>
	</linearGradient>
	<linearGradient id="Gradient5" gradientUnits="userSpaceOnUse" x1="364.101" y1="660.876" x2="351.926" y2="712.915">
		<stop class="stop0" offset="0" stop-opacity="1" stop-color="rgb(233,125,187)"/>
		<stop class="stop1" offset="1" stop-opacity="1" stop-color="rgb(187,112,200)"/>
	</linearGradient>
	<linearGradient id="Gradient6" gradientUnits="userSpaceOnUse" x1="529.048" y1="786.609" x2="580.796" y2="678.228">
		<stop class="stop0" offset="0" stop-opacity="1" stop-color="rgb(96,46,126)"/>
		<stop class="stop1" offset="1" stop-opacity="1" stop-color="rgb(155,75,142)"/>
	</linearGradient>
	<linearGradient id="Gradient7" gradientUnits="userSpaceOnUse" x1="543.572" y1="766.747" x2="580.903" y2="612.652">
		<stop class="stop0" offset="0" stop-opacity="1" stop-color="rgb(153,65,155)"/>
		<stop class="stop1" offset="1" stop-opacity="1" stop-color="rgb(239,100,160)"/>
	</linearGradient>
	<linearGradient id="Gradient8" gradientUnits="userSpaceOnUse" x1="365.96" y1="670.471" x2="338.82" y2="727.878">
		<stop class="stop0" offset="0" stop-opacity="1" stop-color="rgb(200,78,155)"/>
		<stop class="stop1" offset="1" stop-opacity="1" stop-color="rgb(130,61,167)"/>
	</linearGradient>
	<linearGradient id="Gradient9" gradientUnits="userSpaceOnUse" x1="264.89" y1="790.116" x2="314.911" y2="670.115">
		<stop class="stop0" offset="0" stop-opacity="1" stop-color="rgb(66,49,120)"/>
		<stop class="stop1" offset="1" stop-opacity="1" stop-color="rgb(136,73,178)"/>
	</linearGradient>
	<linearGradient id="Gradient10" gradientUnits="userSpaceOnUse" x1="572.662" y1="318.855" x2="399.606" y2="511.001">
		<stop class="stop0" offset="0" stop-opacity="1" stop-color="rgb(251,163,174)"/>
		<stop class="stop1" offset="1" stop-opacity="1" stop-color="rgb(221,102,183)"/>
	</linearGradient>
	<linearGradient id="Gradient11" gradientUnits="userSpaceOnUse" x1="378.903" y1="534.721" x2="482.506" y2="445.925">
		<stop class="stop0" offset="0" stop-opacity="1" stop-color="rgb(21,13,51)"/>
		<stop class="stop1" offset="1" stop-opacity="1" stop-color="rgb(86,44,108)"/>
	</linearGradient>
	<linearGradient id="Gradient12" gradientUnits="userSpaceOnUse" x1="410.301" y1="673.167" x2="463.373" y2="436.738">
		<stop class="stop0" offset="0" stop-opacity="1" stop-color="rgb(185,97,186)"/>
		<stop class="stop1" offset="1" stop-opacity="1" stop-color="rgb(250,208,221)"/>
	</linearGradient>
	<linearGradient id="Gradient13" gradientUnits="userSpaceOnUse" x1="256.906" y1="807.516" x2="569.641" y2="393.198">
		<stop class="stop0" offset="0" stop-opacity="1" stop-color="rgb(17,16,57)"/>
		<stop class="stop1" offset="1" stop-opacity="1" stop-color="rgb(84,40,101)"/>
	</linearGradient>
</defs>
<path transform="translate(0,0)" fill="url(#Gradient13)" d="M 416.96 279.963 C 486.516 275.592 544.277 302.358 598.327 344.315 C 615.108 341.992 628.993 342.114 643.292 353.124 C 653.438 361.098 659.938 372.826 661.323 385.655 C 663.79 406.799 653.244 422.347 636.733 434.033 C 637.938 437.911 639.045 440.989 639.471 445.046 C 644.8 461.879 645.461 511.755 646.43 530.734 C 647.332 545.52 649.026 560.247 651.506 574.852 C 658.811 619.857 677.352 660.811 687.015 704.972 C 689.015 714.115 687.141 736.071 682.292 744.115 C 663.199 775.79 623.762 804.664 591.045 821.491 C 581.855 825.7 566.197 823.486 548.169 831.321 C 513.419 846.423 470.841 870.33 436.282 882.637 C 398.043 871.143 356.476 845.097 318.561 830.841 C 307.942 826.848 297.239 827.695 287.476 824.739 C 262.624 817.215 241.397 798.072 220.918 782.737 C 159.479 738.048 181.7 700.718 200.351 641.591 C 207.601 618.113 213.601 594.267 218.325 570.154 C 227.196 522.633 218.457 484.11 231.813 435.188 C 225.912 430.98 221.727 427.841 217.287 421.941 C 208.898 410.592 205.433 396.342 207.674 382.407 C 212.611 350.167 240.426 339.595 269.711 344.355 C 310.586 310.413 363.632 284.839 416.96 279.963 z"/>
<path transform="translate(0,0)" fill="url(#Gradient12)" d="M 432.268 396.455 C 445.465 403.56 475.122 430.31 480.635 444.664 C 482.084 441.851 481.215 442.78 484.998 441.507 L 486.864 441.835 L 485.909 442.115 L 486.4 442.122 C 494.232 442.289 516.03 446.466 523.61 449.206 C 537.479 449.809 558.596 460.272 569.817 468.629 C 595.607 487.836 608.259 510.4 617.74 540.563 C 623.026 554.003 624.284 560.721 623.426 574.86 C 621.977 585.195 619.863 595.427 617.096 605.49 C 616.13 608.871 608.485 629.823 608.451 630.838 C 601.178 643.533 590.903 665.52 577.192 671.55 C 578.196 664.966 581.428 667.091 580.271 655.554 C 582.514 642.946 585.012 630.384 587.764 617.877 C 564.176 601.054 554.225 588.67 526.009 578.289 C 522.061 576.314 515.952 573.844 512.728 571.789 C 488.81 556.534 473.267 545.933 444.189 556.164 C 426.053 562.545 397.378 547.06 377.201 555.399 C 363.81 560.933 362.667 567.367 360.531 580.414 C 355.243 579.793 348.066 578.578 343.146 580.043 C 324.59 585.571 303.792 596.184 285.943 604.391 C 285.674 606.562 284.851 614.398 284.259 615.975 C 284.009 623.064 282.567 633.85 282.695 639.843 C 283.126 647.804 288.677 665.721 287.305 669.332 C 268.156 651.41 258.782 636.806 252.779 610.866 C 247.859 599.209 243.307 573.138 245.516 560.557 C 253.014 517.854 274.904 486.291 308.651 460.387 C 332.655 449.93 356.879 434.791 385.594 438.23 C 397.271 427.152 419.947 404.069 432.268 396.455 z"/>
<path transform="translate(0,0)" fill="url(#Gradient11)" d="M 432.268 396.455 C 445.465 403.56 475.122 430.31 480.635 444.664 C 481.236 452.398 480.569 454.586 476.837 461.409 C 454.104 477.495 445.19 473.034 445.728 504.184 C 457.62 508.252 491.543 517.687 493.524 531.024 C 492.436 533.833 491.909 534.044 489.3 535.641 C 477.541 537.916 467.078 526.873 455.999 526.39 C 436.384 525.535 415.39 525.474 395.758 526.854 C 388.583 527.358 376.23 531.837 372.315 530.845 C 369.582 519.488 412.704 507.302 421.049 504.971 C 420.874 499.199 420.748 494.961 419.596 489.234 C 414.881 465.788 370.687 466.109 385.594 438.23 C 397.271 427.152 419.947 404.069 432.268 396.455 z"/>
<path transform="translate(0,0)" fill="rgb(154,116,204)" d="M 252.779 610.866 C 256.995 616.299 261.575 632.819 264.618 640.301 C 269.546 641.784 274.329 643.798 279.011 641.37 C 283.557 636.435 278.538 622.371 284.259 615.975 C 284.009 623.064 282.567 633.85 282.695 639.843 C 283.126 647.804 288.677 665.721 287.305 669.332 C 268.156 651.41 258.782 636.806 252.779 610.866 z"/>
<path transform="translate(0,0)" fill="rgb(247,232,243)" d="M 480.635 444.664 C 482.084 441.851 481.215 442.78 484.998 441.507 L 486.864 441.835 L 485.909 442.115 L 486.4 442.122 C 494.232 442.289 516.03 446.466 523.61 449.206 C 520.005 449.765 514.073 448.221 512.258 448.616 C 509.836 449.143 505.083 454.871 501.449 455.079 C 493.139 458.176 484.77 452.114 480.628 457.828 C 478.595 460.632 479.916 460.352 476.837 461.409 C 480.569 454.586 481.236 452.398 480.635 444.664 z"/>
<path transform="translate(0,0)" fill="rgb(105,50,111)" d="M 530.398 471.897 C 557.075 471.699 597.668 507.143 605.933 531.916 C 602.344 530.813 575.835 507.115 570.428 502.663 C 560.409 494.412 538.245 479.98 530.398 471.897 z"/>
<path transform="translate(0,0)" fill="rgb(52,23,75)" d="M 335.918 472.272 L 336.7 473.421 C 334.882 476.369 317.335 488.983 313.212 491.936 C 295.723 504.464 281.99 517.76 266.108 531.825 L 265.443 530.893 C 265.819 526.872 270.074 520.139 272.338 516.604 C 286.826 493.992 309.691 478.048 335.918 472.272 z"/>
<path transform="translate(0,0)" fill="rgb(105,50,111)" d="M 521.898 493.026 C 543.813 494.297 582.008 533.012 582.251 553.714 C 581.352 552.847 575.539 546.72 575.215 546.164 C 568.146 534.052 525.722 503.22 521.898 493.026 z"/>
<path transform="translate(0,0)" fill="rgb(52,23,75)" d="M 345.256 492.859 L 347.454 493.467 C 347.212 495.647 344.814 498.347 343.24 499.796 C 324.773 516.812 307.659 533.356 290.694 551.955 L 289.495 552.123 C 289.569 549.269 290.334 547.418 291.584 544.866 C 303.12 521.319 320.352 501.989 345.256 492.859 z"/>
<path transform="translate(0,0)" fill="url(#Gradient10)" d="M 416.96 279.963 C 486.516 275.592 544.277 302.358 598.327 344.315 C 615.108 341.992 628.993 342.114 643.292 353.124 C 653.438 361.098 659.938 372.826 661.323 385.655 C 663.79 406.799 653.244 422.347 636.733 434.033 C 637.938 437.911 639.045 440.989 639.471 445.046 C 634.729 445.488 636.814 442.466 630.993 443.44 C 623.502 444.693 622.484 455.325 621.953 461.354 C 624.049 482.964 625.335 498.56 624.842 520.337 L 624.56 521.148 C 621.987 528.782 625.75 532.555 622.919 538.713 C 620.606 539.853 620.257 539.975 617.74 540.563 C 608.259 510.4 595.607 487.836 569.817 468.629 C 558.596 460.272 537.479 449.809 523.61 449.206 C 516.03 446.466 494.232 442.289 486.4 442.122 L 485.909 442.115 L 486.864 441.835 L 484.998 441.507 C 481.215 442.78 482.084 441.851 480.635 444.664 C 475.122 430.31 445.465 403.56 432.268 396.455 C 419.947 404.069 397.271 427.152 385.594 438.23 C 356.879 434.791 332.655 449.93 308.651 460.387 C 313.494 452.878 322.964 452.869 330.162 447.296 C 330.195 445.432 329.822 443.897 328.061 442.866 C 313.771 434.499 304.376 426.547 295.804 411.719 C 288.169 398.514 298.918 364.458 295.35 353.026 L 292.395 352.123 C 331.994 323.868 368.436 305.97 416.677 299.732 C 418.086 298.686 420.559 298.071 422.325 297.514 C 420.96 296.633 421.444 296.977 420.509 295.478 C 421.694 291.504 422.788 286.722 421.367 282.484 C 420.909 281.122 418.678 280.657 416.96 279.963 z"/>
<path transform="translate(0,0)" fill="rgb(105,50,111)" d="M 416.96 279.963 C 486.516 275.592 544.277 302.358 598.327 344.315 C 615.108 341.992 628.993 342.114 643.292 353.124 C 653.438 361.098 659.938 372.826 661.323 385.655 C 663.79 406.799 653.244 422.347 636.733 434.033 C 637.938 437.911 639.045 440.989 639.471 445.046 C 634.729 445.488 636.814 442.466 630.993 443.44 C 623.502 444.693 622.484 455.325 621.953 461.354 C 619.59 446.799 616.217 432.426 611.858 418.339 C 613.847 418.134 615.952 417.903 617.91 417.511 C 626.051 415.809 633.157 410.886 637.611 403.862 C 641.555 397.563 642.817 389.948 641.114 382.714 C 635.407 359.162 610.603 361.116 592.496 365.873 C 589.189 359.475 565.986 344.32 559.078 340.41 C 537.444 323.794 490.522 304.826 463.251 301.342 C 451.169 298.442 434.5 298.845 422.241 299.324 L 416.677 299.732 C 418.086 298.686 420.559 298.071 422.325 297.514 C 420.96 296.633 421.444 296.977 420.509 295.478 C 421.694 291.504 422.788 286.722 421.367 282.484 C 420.909 281.122 418.678 280.657 416.96 279.963 z"/>
<path transform="translate(0,0)" fill="rgb(231,178,215)" d="M 559.078 340.41 C 565.986 344.32 589.189 359.475 592.496 365.873 L 591.353 365.975 C 585.317 362.042 562.852 347.435 558.801 342.513 L 559.078 340.41 z"/>
<path transform="translate(0,0)" fill="rgb(212,135,183)" d="M 422.241 299.324 C 434.5 298.845 451.169 298.442 463.251 301.342 C 459.497 304.203 428.974 302.16 422.983 301.13 L 422.241 299.324 z"/>
<path transform="translate(0,0)" fill="rgb(105,50,111)" d="M 521.788 390.624 C 527.986 388.721 534.728 390.324 539.407 394.812 C 544.085 399.301 545.965 405.971 544.321 412.242 C 542.676 418.513 537.764 423.402 531.485 425.016 C 522.082 427.434 512.468 421.903 509.834 412.558 C 507.199 403.213 512.507 393.474 521.788 390.624 z"/>
<path transform="translate(0,0)" fill="rgb(52,23,75)" d="M 339.439 387.722 C 349.086 387.16 357.428 394.376 358.261 404.004 C 359.093 413.631 352.113 422.173 342.513 423.275 C 336.059 424.016 329.712 421.192 325.941 415.901 C 322.171 410.611 321.573 403.69 324.379 397.831 C 327.185 391.972 332.953 388.1 339.439 387.722 z"/>
<path transform="translate(0,0)" fill="url(#Gradient9)" d="M 235.085 594.014 C 237.011 602.02 228.677 625.706 225.852 634.804 C 239.889 648.212 253.655 683.863 274.006 688.707 C 277.26 689.481 302.037 676.66 306.924 673.939 L 306.096 673.125 C 300.269 667.313 290.446 654.38 286.046 647.319 L 285.245 647.645 C 286.205 652.057 290.05 666.366 288.845 669.468 L 287.305 669.332 C 288.677 665.721 283.126 647.804 282.695 639.843 C 289.782 649.086 302.737 666.831 310.231 674.812 C 301.166 679.215 260.819 697.017 257.909 701.99 C 259.904 709.461 279.877 704.385 285.657 702.988 L 285.32 704.41 C 288.273 705.085 288.599 704.836 291.638 704.047 L 301.335 703.888 C 301.5 703.762 301.665 703.635 301.83 703.509 C 326.965 698.893 348.625 686.003 372.875 678.602 C 388.43 673.854 396.048 682.887 401.777 696.835 C 402.5 700.359 403.381 706.176 405.076 709.054 L 406.523 709.284 C 404.638 713.094 398.927 723.516 395.746 726.103 C 385.011 746.833 344.065 785.83 325.524 799.517 C 297.003 820.571 259.381 783.484 236.425 767.484 C 223.273 758.317 198.958 736.586 201.945 717.62 C 208.526 675.825 225.485 635.856 235.085 594.014 z"/>
<path transform="translate(0,0)" fill="url(#Gradient8)" d="M 301.335 703.888 C 301.5 703.762 301.665 703.635 301.83 703.509 C 326.965 698.893 348.625 686.003 372.875 678.602 C 388.43 673.854 396.048 682.887 401.777 696.835 C 396.138 702.394 387.238 714.476 383.214 721.462 C 373.982 731.904 351.85 754.503 339.474 760.391 C 339.435 757.899 358.587 746.332 363.681 739.54 C 350.053 732.774 341.907 723.332 329.469 715.54 C 323.983 712.102 306.543 708.552 301.335 703.888 z"/>
<path transform="translate(0,0)" fill="rgb(173,89,178)" d="M 383.214 721.462 C 387.238 714.476 396.138 702.394 401.777 696.835 C 402.5 700.359 403.381 706.176 405.076 709.054 L 406.523 709.284 C 404.638 713.094 398.927 723.516 395.746 726.103 C 394.289 720.992 406.862 714.913 401.078 706.565 C 393.349 707.175 388.686 719.095 383.214 721.462 z"/>
<path transform="translate(0,0)" fill="url(#Gradient7)" d="M 608.451 630.838 C 610.872 629.741 610.057 630.254 611.655 627.683 C 615.524 629.889 624.199 628.8 628.604 627.66 C 641.896 624.218 635.637 631.606 642.322 640.243 C 647.888 656.129 654.248 673.645 658.349 689.855 C 660.256 695.839 665.349 717.27 666.846 719.834 C 666.72 722.941 666.81 724.25 665.858 727.271 C 662.868 722.635 663.987 718.735 659.968 716.379 C 651.306 717.913 647.707 732.546 640.253 739.031 C 638.591 743.427 629.877 749.815 626.035 752.741 C 559.457 803.461 504.234 750.625 464.5 693.175 L 464.531 691.996 C 470.37 682.541 472.988 679.364 483.556 675.256 C 511.355 681.72 540.584 704.037 570.365 703.021 C 574.13 704.013 575.307 703.691 579.037 703.18 C 584.576 704.631 606.782 710.51 608.776 701.661 C 605.693 695.96 590.921 692.031 584.693 689.116 C 577.682 685.833 571.429 682.561 564.634 678.778 C 567.541 676.553 573.908 673.306 577.192 671.55 C 590.903 665.52 601.178 643.533 608.451 630.838 z"/>
<path transform="translate(0,0)" fill="rgb(173,89,178)" d="M 640.253 739.031 C 641.067 736.064 652.12 719.737 653.832 713.695 C 655.798 706.758 655.621 694.906 658.349 689.855 C 660.256 695.839 665.349 717.27 666.846 719.834 C 666.72 722.941 666.81 724.25 665.858 727.271 C 662.868 722.635 663.987 718.735 659.968 716.379 C 651.306 717.913 647.707 732.546 640.253 739.031 z"/>
<path transform="translate(0,0)" fill="rgb(173,89,178)" d="M 275.282 364.448 C 280.921 360.251 286.627 356.142 292.395 352.123 L 295.35 353.026 C 298.918 364.458 288.169 398.514 295.804 411.719 C 304.376 426.547 313.771 434.499 328.061 442.866 C 329.822 443.897 330.195 445.432 330.162 447.296 C 322.964 452.869 313.494 452.878 308.651 460.387 C 274.904 486.291 253.014 517.854 245.516 560.557 C 243.307 573.138 247.859 599.209 252.779 610.866 C 258.782 636.806 268.156 651.41 287.305 669.332 L 288.845 669.468 C 290.05 666.366 286.205 652.057 285.245 647.645 L 286.046 647.319 C 290.446 654.38 300.269 667.313 306.096 673.125 L 306.924 673.939 C 302.037 676.66 277.26 689.481 274.006 688.707 C 253.655 683.863 239.889 648.212 225.852 634.804 C 228.677 625.706 237.011 602.02 235.085 594.014 C 237.329 580.562 241.839 561.395 242.591 548.516 C 245.332 501.561 241.97 466.02 256.88 419.657 C 238.948 416.825 225.459 403.451 228.028 384.488 C 228.873 377.922 232.416 372.006 237.806 368.163 C 248.951 360.092 262.795 362.631 275.282 364.448 z"/>
<path transform="translate(0,0)" fill="url(#Gradient6)" d="M 464.5 693.175 C 504.234 750.625 559.457 803.461 626.035 752.741 C 629.877 749.815 638.591 743.427 640.253 739.031 C 647.707 732.546 651.306 717.913 659.968 716.379 C 663.987 718.735 662.868 722.635 665.858 727.271 C 661.887 749.598 611.139 784.56 592.548 796.806 C 547.638 826.389 478.824 742.502 460.408 709.292 L 464.5 693.175 z"/>
<path transform="translate(0,0)" fill="rgb(69,77,176)" d="M 481.844 572.301 L 483.911 571.319 C 487.452 573.914 496.04 585.232 499.392 589.147 C 501.226 589.971 502.107 590.586 504.059 590.816 L 509.444 587.244 C 509.886 596.961 509.513 606.699 508.33 616.354 L 509.578 617.122 L 511.216 618.106 C 508.794 623.538 505.677 643.164 504.626 649.699 L 495.191 645.58 L 488.426 643.593 L 481.293 643.682 C 471.001 643.975 464.968 647.41 455.93 652 C 454.124 647.667 451.995 645.196 449.161 641.447 C 452.445 636.615 456.931 629.572 460.668 625.341 C 461.335 624.741 463.201 622.476 463.892 621.672 C 468.165 619.824 472.063 614.107 476.844 610.065 L 481.059 606.802 C 479.394 603.004 480.16 597.316 480.41 593.043 C 480.934 588.317 481.766 584.096 482.654 579.445 L 482.961 574.913 L 483.349 573.874 L 481.844 572.301 z"/>
<path transform="translate(0,0)" fill="rgb(125,184,239)" d="M 476.844 610.065 C 478.042 613.48 480.09 618.373 479.842 621.909 C 480.765 630.068 481.205 635.488 481.293 643.682 C 471.001 643.975 464.968 647.41 455.93 652 C 454.124 647.667 451.995 645.196 449.161 641.447 C 452.445 636.615 456.931 629.572 460.668 625.341 C 461.335 624.741 463.201 622.476 463.892 621.672 C 468.165 619.824 472.063 614.107 476.844 610.065 z"/>
<path transform="translate(0,0)" fill="rgb(69,77,176)" d="M 476.844 610.065 C 478.042 613.48 480.09 618.373 479.842 621.909 L 476.857 623.281 C 475.392 625.371 476.333 636.481 475.892 641.064 L 474.747 641.207 C 470.222 635.295 467.541 628.462 463.892 621.672 C 468.165 619.824 472.063 614.107 476.844 610.065 z"/>
<path transform="translate(0,0)" fill="rgb(147,154,236)" d="M 488.154 632.511 C 489.066 625.69 488.264 619.091 489.647 611.448 L 490.476 611.508 L 491.43 615.854 C 494.319 620.421 499.405 632.724 504.178 633.065 C 506.955 629.596 507.642 621.023 508.33 616.354 L 509.578 617.122 L 511.216 618.106 C 508.794 623.538 505.677 643.164 504.626 649.699 L 495.191 645.58 L 488.426 643.593 C 488.37 639.898 488.28 636.204 488.154 632.511 z"/>
<path transform="translate(0,0)" fill="rgb(172,199,247)" d="M 488.154 632.511 C 489.066 625.69 488.264 619.091 489.647 611.448 L 490.476 611.508 L 491.43 615.854 C 493.286 624.529 494.238 636.485 495.191 645.58 L 488.426 643.593 C 488.37 639.898 488.28 636.204 488.154 632.511 z"/>
<path transform="translate(0,0)" fill="rgb(61,66,154)" d="M 487.121 602.408 C 489.407 605.693 486.894 624.726 488.154 632.511 C 488.28 636.204 488.37 639.898 488.426 643.593 L 481.293 643.682 C 481.205 635.488 480.765 630.068 479.842 621.909 C 480.09 618.373 478.042 613.48 476.844 610.065 L 481.059 606.802 L 487.121 602.408 z"/>
<path transform="translate(0,0)" fill="rgb(152,219,243)" d="M 504.059 590.816 L 509.444 587.244 C 509.886 596.961 509.513 606.699 508.33 616.354 C 501.789 612.439 495.174 608.648 488.49 604.983 C 492.54 601.094 501.25 594.803 504.059 590.816 z"/>
<path transform="translate(0,0)" fill="rgb(201,202,245)" d="M 481.844 572.301 L 483.911 571.319 C 487.452 573.914 496.04 585.232 499.392 589.147 L 490.193 597.601 C 489.355 592.88 488.001 582.967 485.548 579.36 L 482.654 579.445 L 482.961 574.913 L 483.349 573.874 L 481.844 572.301 z"/>
<path transform="translate(0,0)" fill="rgb(218,173,233)" d="M 482.654 579.445 L 485.548 579.36 C 484.905 584.827 486.045 596.825 487.121 602.408 L 481.059 606.802 C 479.394 603.004 480.16 597.316 480.41 593.043 C 480.934 588.317 481.766 584.096 482.654 579.445 z"/>
<path transform="translate(0,0)" fill="url(#Gradient5)" d="M 291.638 704.047 C 301.167 699.849 310.331 697.307 320.182 692.795 C 337.039 685.074 367.416 663.432 386.119 665.191 C 398.037 666.312 402.935 672.122 409.41 680.42 L 410.711 679.296 C 415.655 690.601 411.964 698.78 406.523 709.284 L 405.076 709.054 C 403.381 706.176 402.5 700.359 401.777 696.835 C 396.048 682.887 388.43 673.854 372.875 678.602 C 348.625 686.003 326.965 698.893 301.83 703.509 C 301.665 703.635 301.5 703.762 301.335 703.888 L 291.638 704.047 z"/>
<path transform="translate(0,0)" fill="url(#Gradient4)" d="M 448.441 589.954 C 456.335 584.819 472.948 576.794 481.844 572.301 L 483.349 573.874 L 482.961 574.913 L 482.654 579.445 C 481.766 584.096 480.934 588.317 480.41 593.043 C 480.16 597.316 479.394 603.004 481.059 606.802 L 476.844 610.065 C 472.063 614.107 468.165 619.824 463.892 621.672 C 463.201 622.476 461.335 624.741 460.668 625.341 C 458.171 621.485 453.653 618.787 449.831 616.102 C 447.537 618.84 443.921 623.888 440.629 624.676 C 441.089 617.011 445.587 600.121 447.629 592.041 L 448.441 589.954 z"/>
<path transform="translate(0,0)" fill="rgb(154,116,204)" d="M 461.278 602.654 C 466.497 597.151 477.248 581.902 482.961 574.913 L 482.654 579.445 C 481.766 584.096 480.934 588.317 480.41 593.043 C 480.16 597.316 479.394 603.004 481.059 606.802 L 476.844 610.065 C 472.063 614.107 468.165 619.824 463.892 621.672 C 463.201 622.476 461.335 624.741 460.668 625.341 C 458.171 621.485 453.653 618.787 449.831 616.102 C 451.092 613.792 459.051 605.237 461.278 602.654 z"/>
<path transform="translate(0,0)" fill="rgb(201,202,245)" d="M 449.831 616.102 C 451.092 613.792 459.051 605.237 461.278 602.654 C 465.306 603.737 467.011 606.006 469.949 608.991 C 468.405 612.308 465.637 618.742 463.892 621.672 C 463.201 622.476 461.335 624.741 460.668 625.341 C 458.171 621.485 453.653 618.787 449.831 616.102 z"/>
<path transform="translate(0,0)" fill="rgb(114,80,156)" d="M 469.949 608.991 C 471.234 604.985 475.281 590.741 479.125 590.098 L 480.41 593.043 C 480.16 597.316 479.394 603.004 481.059 606.802 L 476.844 610.065 C 472.063 614.107 468.165 619.824 463.892 621.672 C 465.637 618.742 468.405 612.308 469.949 608.991 z"/>
<path transform="translate(0,0)" fill="rgb(141,134,173)" d="M 391.328 596.944 L 393.748 601.144 L 395.239 611.354 L 395.947 611.676 C 401.718 613.673 403.649 618.668 407.058 624.315 C 404.587 627.402 401.921 630.88 399.349 633.83 C 396.247 637.786 393.336 642.242 388.914 644.49 C 387.107 644.518 385.163 644.591 383.373 644.517 C 380.078 645.07 377.983 645.557 374.592 645.303 C 372.479 642.721 372.996 640.776 372.61 636.892 C 371.652 627.485 371.413 618.805 371.123 609.382 L 372.941 606.484 C 375.773 604.655 387.116 599.276 391.328 596.944 z"/>
<path transform="translate(0,0)" fill="rgb(59,31,117)" d="M 391.328 596.944 L 393.748 601.144 L 395.239 611.354 C 391.663 614.244 389.193 612.772 384.34 618.098 C 382.553 621.741 384.502 631.132 385.101 635.686 C 381.088 626.246 377.789 615.297 372.941 606.484 C 375.773 604.655 387.116 599.276 391.328 596.944 z"/>
<path transform="translate(0,0)" fill="rgb(220,228,244)" d="M 395.947 611.676 C 401.718 613.673 403.649 618.668 407.058 624.315 C 404.587 627.402 401.921 630.88 399.349 633.83 C 398.002 631.082 396.349 615.568 395.947 611.676 z"/>
<path transform="translate(0,0)" fill="rgb(173,150,204)" d="M 372.61 636.892 C 373.358 632.825 372.65 632.454 375.329 630.581 C 378.958 632.126 381.781 640.606 383.373 644.517 C 380.078 645.07 377.983 645.557 374.592 645.303 C 372.479 642.721 372.996 640.776 372.61 636.892 z"/>
<path transform="translate(0,0)" fill="rgb(59,31,117)" d="M 410.209 572.401 L 410.762 572.74 C 416.32 577.91 427.777 584.716 434.624 589.019 C 433.05 589.592 431.7 590.143 430.05 590.474 C 428.74 592.119 424.715 597.701 424.632 599.666 C 424.735 603.843 424.694 610.043 425.129 614.043 C 422.005 615.42 413.91 619.442 411.398 620.257 L 407.058 624.315 C 403.649 618.668 401.718 613.673 395.947 611.676 L 395.239 611.354 L 393.748 601.144 L 395.254 598.195 C 394.292 595.049 394.53 596.148 395.793 592.43 C 400.057 589.838 399.863 585.282 405.044 581.58 L 404.756 581.251 C 406.926 578.402 409.265 575.823 410.209 572.401 z"/>
<path transform="translate(0,0)" fill="rgb(218,173,233)" d="M 410.209 572.401 L 410.762 572.74 C 416.32 577.91 427.777 584.716 434.624 589.019 C 433.05 589.592 431.7 590.143 430.05 590.474 C 428.74 592.119 424.715 597.701 424.632 599.666 L 424.045 590.172 C 417.421 586.929 411.944 584.23 405.044 581.58 L 404.756 581.251 C 406.926 578.402 409.265 575.823 410.209 572.401 z"/>
<path transform="translate(0,0)" fill="rgb(201,202,245)" d="M 395.254 598.195 C 400.568 605.598 405.95 612.952 411.398 620.257 L 407.058 624.315 C 403.649 618.668 401.718 613.673 395.947 611.676 L 395.239 611.354 L 393.748 601.144 L 395.254 598.195 z"/>
<path transform="translate(0,0)" fill="rgb(152,219,243)" d="M 509.444 587.244 C 513.65 589.278 517.378 591.235 521.896 592.521 C 523.692 593.513 525.333 594.401 527.173 595.308 C 537.395 598.495 541.646 599.081 549.214 606.976 C 541.735 607.773 542.913 609.069 541.326 616.626 C 541.586 622.168 543.959 633.482 543.325 637.312 L 542.52 637.274 C 532.041 630.956 521.607 624.567 511.216 618.106 L 509.578 617.122 L 508.33 616.354 C 509.513 606.699 509.886 596.961 509.444 587.244 z"/>
<path transform="translate(0,0)" fill="rgb(194,223,243)" d="M 509.444 587.244 C 513.65 589.278 517.378 591.235 521.896 592.521 C 523.692 593.513 525.333 594.401 527.173 595.308 C 526.07 601.514 531.504 599.427 524.476 604.109 C 520.997 606.427 517.5 608.8 514.842 612.065 L 514.696 613.803 L 515.729 614.67 C 513.871 615.464 511.464 616.609 509.578 617.122 L 508.33 616.354 C 509.513 606.699 509.886 596.961 509.444 587.244 z"/>
<path transform="translate(0,0)" fill="rgb(220,228,244)" d="M 527.173 595.308 C 537.395 598.495 541.646 599.081 549.214 606.976 C 541.735 607.773 542.913 609.069 541.326 616.626 C 540.182 601.817 534.458 606.9 524.211 611.103 C 521.407 612.254 518.529 613.496 515.729 614.67 L 514.696 613.803 L 514.842 612.065 C 517.5 608.8 520.997 606.427 524.476 604.109 C 531.504 599.427 526.07 601.514 527.173 595.308 z"/>
<path transform="translate(0,0)" fill="rgb(69,77,176)" d="M 449.831 616.102 C 453.653 618.787 458.171 621.485 460.668 625.341 C 456.931 629.572 452.445 636.615 449.161 641.447 C 451.995 645.196 454.124 647.667 455.93 652 C 454.001 653.749 446.064 662.12 445.721 662.337 C 438.316 659.508 428.299 656.653 421.757 661.757 C 419.241 659.403 413.463 654.779 412.703 652.068 C 416.786 651.596 423.327 644.904 426.359 641.925 C 430.361 638.67 435.286 633.381 439.016 629.605 C 439.841 626.952 439.811 628.284 438.868 625.48 L 440.629 624.676 C 443.921 623.888 447.537 618.84 449.831 616.102 z"/>
<path transform="translate(0,0)" fill="rgb(147,154,236)" d="M 449.831 616.102 C 453.653 618.787 458.171 621.485 460.668 625.341 C 456.931 629.572 452.445 636.615 449.161 641.447 C 445.669 642.411 440.153 644.38 436.899 643.413 C 435.596 638.506 441.041 635.926 439.016 629.605 C 439.841 626.952 439.811 628.284 438.868 625.48 L 440.629 624.676 C 443.921 623.888 447.537 618.84 449.831 616.102 z"/>
<path transform="translate(0,0)" fill="rgb(212,135,183)" d="M 465.879 666.715 C 469.011 666.421 479.87 663.524 481.445 663.971 C 506.856 671.186 529.499 687.292 554.076 696.95 C 559.5 699.081 565.002 700.89 570.365 703.021 C 540.584 704.037 511.355 681.72 483.556 675.256 C 472.988 679.364 470.37 682.541 464.531 691.996 C 457.496 688.196 465.138 683.713 458.016 675.556 C 461.113 671.209 461.906 670.259 465.879 666.715 z"/>
<path transform="translate(0,0)" fill="rgb(226,102,167)" d="M 623.426 574.86 L 625.283 574.379 C 628.082 577.272 632.54 600.953 633.802 606.754 C 636.035 617.021 640.834 630.22 642.322 640.243 C 635.637 631.606 641.896 624.218 628.604 627.66 C 624.199 628.8 615.524 629.889 611.655 627.683 C 610.057 630.254 610.872 629.741 608.451 630.838 C 608.485 629.823 616.13 608.871 617.096 605.49 C 619.863 595.427 621.977 585.195 623.426 574.86 z"/>
<path transform="translate(0,0)" fill="rgb(194,223,243)" d="M 541.326 616.626 C 542.913 609.069 541.735 607.773 549.214 606.976 C 553.674 610.461 558.061 614.039 562.37 617.71 C 564.961 619.72 566.653 620.812 568.666 623.448 C 568.495 626.226 568.153 629.929 568.206 632.633 C 568.084 636.53 568.25 648.247 566.438 650.957 L 560.276 647.6 C 555.241 644.647 551.222 642.518 546.028 639.935 L 543.325 637.312 C 543.959 633.482 541.586 622.168 541.326 616.626 z"/>
<path transform="translate(0,0)" fill="rgb(152,219,243)" d="M 568.666 623.448 C 561.541 626.365 553.568 638.517 547.255 635.243 C 543.419 629.303 545.3 619.294 545.475 611.972 C 550.836 612.297 553.878 622.164 562.37 617.71 C 564.961 619.72 566.653 620.812 568.666 623.448 z"/>
<path transform="translate(0,0)" fill="rgb(61,66,154)" d="M 504.626 649.699 C 505.677 643.164 508.794 623.538 511.216 618.106 C 521.607 624.567 532.041 630.956 542.52 637.274 C 537.164 640.086 531.127 642.643 527.95 647.885 C 526.482 652.772 526.078 654.143 525.793 659.187 L 525.673 660.113 C 518.688 657.182 512.581 653.724 505.945 650.103 L 504.626 649.699 z"/>
<path transform="translate(0,0)" fill="rgb(125,184,239)" d="M 505.945 650.103 C 506.53 646.661 506.68 642.895 509.206 640.64 C 517.07 636.602 523.856 641.029 527.95 647.885 C 526.482 652.772 526.078 654.143 525.793 659.187 L 525.673 660.113 C 518.688 657.182 512.581 653.724 505.945 650.103 z"/>
<path transform="translate(0,0)" fill="rgb(212,135,183)" d="M 617.74 540.563 C 620.257 539.975 620.606 539.853 622.919 538.713 C 625.75 532.555 621.987 528.782 624.56 521.148 L 624.842 520.337 C 627.587 563.157 630.358 582.631 641.715 624.539 C 648.448 649.382 667.092 697.141 666.846 719.834 C 665.349 717.27 660.256 695.839 658.349 689.855 C 654.248 673.645 647.888 656.129 642.322 640.243 C 640.834 630.22 636.035 617.021 633.802 606.754 C 632.54 600.953 628.082 577.272 625.283 574.379 L 623.426 574.86 C 624.284 560.721 623.026 554.003 617.74 540.563 z"/>
<path transform="translate(0,0)" fill="rgb(59,31,117)" d="M 542.52 637.274 L 543.325 637.312 L 546.028 639.935 C 551.222 642.518 555.241 644.647 560.276 647.6 L 566.438 650.957 C 556.917 656.602 548.953 663.179 540.191 668.482 C 535.599 665.269 531.364 663.321 526.381 660.862 L 525.673 660.113 L 525.793 659.187 C 526.078 654.143 526.482 652.772 527.95 647.885 C 531.127 642.643 537.164 640.086 542.52 637.274 z"/>
<path transform="translate(0,0)" fill="rgb(112,118,213)" d="M 560.276 647.6 L 566.438 650.957 C 556.917 656.602 548.953 663.179 540.191 668.482 C 535.599 665.269 531.364 663.321 526.381 660.862 C 529.521 656.987 538.374 652.172 544.86 645.275 L 539.048 662.994 C 545.287 657.89 553.56 652.297 560.276 647.6 z"/>
<path transform="translate(0,0)" fill="rgb(147,154,236)" d="M 542.52 637.274 L 543.325 637.312 L 546.028 639.935 C 540.607 645.117 531.205 654.716 525.793 659.187 C 526.078 654.143 526.482 652.772 527.95 647.885 C 531.127 642.643 537.164 640.086 542.52 637.274 z"/>
<path transform="translate(0,0)" fill="rgb(154,116,204)" d="M 458.981 568.085 C 456.421 572.433 448.389 585.367 448.441 589.954 L 447.629 592.041 C 442.93 590.597 440.51 593.315 435.18 590.298 L 434.624 589.019 C 427.777 584.716 416.32 577.91 410.762 572.74 L 420.441 571.067 C 427.318 576.684 450.684 570.518 458.981 568.085 z"/>
<path transform="translate(0,0)" fill="rgb(105,50,111)" d="M 526.009 578.289 C 554.225 588.67 564.176 601.054 587.764 617.877 C 585.012 630.384 582.514 642.946 580.271 655.554 C 578.113 657.597 575.545 660.26 573.09 661.806 C 571.458 658.358 569.483 655.292 571.982 651.758 L 571.565 650.761 L 571.634 650.807 C 572.262 653.926 572.232 654.982 574.228 657.492 L 575.971 657.044 C 581.523 650.696 581.763 630.431 585.319 620.579 L 585.634 619.732 C 582.864 616.297 565.49 603.194 561.598 601.607 C 548.764 608.616 565.851 616.093 569.092 621.589 C 570.975 624.78 569.244 629.201 568.206 632.633 C 568.153 629.929 568.495 626.226 568.666 623.448 C 566.653 620.812 564.961 619.72 562.37 617.71 C 558.061 614.039 553.674 610.461 549.214 606.976 C 541.646 599.081 537.395 598.495 527.173 595.308 C 525.333 594.401 523.692 593.513 521.896 592.521 C 525.351 589.546 540.131 600.888 548.766 598.789 C 551.367 596.47 550.836 597.602 551.392 594.544 C 547.617 586.677 532.88 585.947 526.009 578.289 z"/>
<path transform="translate(0,0)" fill="rgb(247,232,243)" d="M 378.115 572.597 C 384.996 568.837 391.589 566.652 398.938 563.971 L 410.209 572.401 C 409.265 575.823 406.926 578.402 404.756 581.251 L 405.044 581.58 C 399.863 585.282 400.057 589.838 395.793 592.43 C 391.459 589.804 384.304 580.23 380.878 575.943 L 381.312 574.434 L 378.115 572.597 z"/>
<path transform="translate(0,0)" fill="rgb(186,112,183)" d="M 381.312 574.434 C 385.856 575.799 401.584 579.567 404.756 581.251 L 405.044 581.58 C 399.863 585.282 400.057 589.838 395.793 592.43 C 391.459 589.804 384.304 580.23 380.878 575.943 L 381.312 574.434 z"/>
<path transform="translate(0,0)" fill="rgb(218,173,233)" d="M 285.657 702.988 C 305.429 697.501 330.083 683.411 348.651 674.191 C 370.761 663.213 395.254 649.523 410.711 679.296 L 409.41 680.42 C 402.935 672.122 398.037 666.312 386.119 665.191 C 367.416 663.432 337.039 685.074 320.182 692.795 C 310.331 697.307 301.167 699.849 291.638 704.047 C 288.599 704.836 288.273 705.085 285.32 704.41 L 285.657 702.988 z"/>
<path transform="translate(0,0)" fill="rgb(114,80,156)" d="M 378.115 572.597 L 381.312 574.434 L 380.878 575.943 C 384.304 580.23 391.459 589.804 395.793 592.43 C 394.53 596.148 394.292 595.049 395.254 598.195 L 393.748 601.144 L 391.328 596.944 C 387.116 599.276 375.773 604.655 372.941 606.484 L 371.123 609.382 C 371.326 602.372 375.316 581.02 376.853 573.879 L 378.115 572.597 z"/>
<path transform="translate(0,0)" fill="rgb(218,173,233)" d="M 378.115 572.597 L 381.312 574.434 L 380.878 575.943 C 384.304 580.23 391.459 589.804 395.793 592.43 C 394.53 596.148 394.292 595.049 395.254 598.195 L 393.748 601.144 L 391.328 596.944 C 386.624 589.069 382.144 581.391 376.853 573.879 L 378.115 572.597 z"/>
<path transform="translate(0,0)" fill="rgb(231,178,215)" d="M 465.879 666.715 C 478.202 656.615 487.537 660.308 500.847 667.021 C 513.578 673.442 526.014 680.165 538.922 686.25 C 551.996 692.574 565.386 698.225 579.037 703.18 C 575.307 703.691 574.13 704.013 570.365 703.021 C 565.002 700.89 559.5 699.081 554.076 696.95 C 529.499 687.292 506.856 671.186 481.445 663.971 C 479.87 663.524 469.011 666.421 465.879 666.715 z"/>
<path transform="translate(0,0)" fill="rgb(152,219,243)" d="M 421.757 661.757 C 428.299 656.653 438.316 659.508 445.721 662.337 C 432.382 681.346 438.442 682.574 432.427 699.773 C 429.889 683.812 432.502 676.023 421.757 661.757 z"/>
<path transform="translate(0,0)" fill="rgb(125,184,239)" d="M 436.752 625.717 L 438.868 625.48 C 439.811 628.284 439.841 626.952 439.016 629.605 C 435.286 633.381 430.361 638.67 426.359 641.925 C 423.327 644.904 416.786 651.596 412.703 652.068 C 414.335 644.089 416.305 636.451 418.31 628.561 C 424.907 627.187 430.09 626.521 436.752 625.717 z"/>
<path transform="translate(0,0)" fill="rgb(172,199,247)" d="M 436.752 625.717 L 438.868 625.48 C 439.811 628.284 439.841 626.952 439.016 629.605 C 435.286 633.381 430.361 638.67 426.359 641.925 C 423.233 635.348 431.852 628.839 436.752 625.717 z"/>
<path transform="translate(0,0)" fill="rgb(186,112,183)" d="M 573.09 661.806 C 575.545 660.26 578.113 657.597 580.271 655.554 C 581.428 667.091 578.196 664.966 577.192 671.55 C 573.908 673.306 567.541 676.553 564.634 678.778 C 562.655 677.844 560.814 676.897 558.872 675.89 L 558.201 673.708 C 559.828 669.525 568.808 664.628 573.09 661.806 z"/>
<path transform="translate(0,0)" fill="rgb(186,112,183)" d="M 460.408 709.292 C 454.093 697.188 450.9 687.868 458.016 675.556 C 465.138 683.713 457.496 688.196 464.531 691.996 L 464.5 693.175 L 460.408 709.292 z"/>
<path transform="translate(0,0)" fill="rgb(201,202,245)" d="M 420.441 571.067 C 428.402 568.48 452.942 561.301 458.981 568.085 C 450.684 570.518 427.318 576.684 420.441 571.067 z"/>
<path transform="translate(0,0)" fill="rgb(173,150,204)" d="M 434.624 589.019 L 435.18 590.298 C 432.959 595.98 428.681 611.392 425.129 614.043 C 424.694 610.043 424.735 603.843 424.632 599.666 C 424.715 597.701 428.74 592.119 430.05 590.474 C 431.7 590.143 433.05 589.592 434.624 589.019 z"/>
<path transform="translate(0,0)" fill="rgb(114,80,156)" d="M 393.468 763.133 C 406.711 779.745 413.017 777.258 428.462 788.869 C 430.797 790.625 429.816 795.203 429.596 798.255 C 431.917 801.997 434.988 801.642 439.155 800.332 C 438.697 796.54 437.78 792.25 438.976 788.772 C 447.591 781.35 460.171 779.418 474.058 766.768 C 490.485 782.996 504.334 796.139 522.807 810.429 C 525.15 811.995 527.634 813.16 528.561 815.634 C 517.072 822.139 500.51 829.395 488.079 835.245 C 472.101 842.764 453.851 852.113 437.688 858.657 C 432.577 860.456 349.95 820.791 338.071 815.128 C 356.416 802.26 377.742 779.618 393.468 763.133 z"/>
<path transform="translate(0,0)" fill="url(#Gradient3)" d="M 393.468 763.133 C 406.711 779.745 413.017 777.258 428.462 788.869 C 430.797 790.625 429.816 795.203 429.596 798.255 L 428.41 802.682 C 426.673 800.829 424.031 800.863 421.06 800.232 C 420.125 797.475 419.801 794.523 416.817 793.512 C 412.988 792.214 408.342 791.731 405.092 794.334 L 404.814 796.176 C 406.833 798.469 409.021 798.979 411.911 800.119 C 410.278 805.84 407.8 816.208 402.458 819.317 C 398.789 821.008 398.353 821.268 395.567 824.312 C 394.052 824.604 393.165 824.601 391.879 825.356 C 395.689 829.6 424.06 837.136 436.095 849.204 C 437.469 854.946 435.077 856.156 437.688 858.657 C 432.577 860.456 349.95 820.791 338.071 815.128 C 356.416 802.26 377.742 779.618 393.468 763.133 z"/>
<path transform="translate(0,0)" fill="rgb(173,150,204)" d="M 467.008 826.261 C 474.539 830.577 506.943 811.604 522.807 810.429 C 525.15 811.995 527.634 813.16 528.561 815.634 C 517.072 822.139 500.51 829.395 488.079 835.245 C 472.101 842.764 453.851 852.113 437.688 858.657 C 435.077 856.156 437.469 854.946 436.095 849.204 C 440.358 839.562 456.326 834.266 466.275 829.415 L 465.81 828.065 L 465.834 826.241 L 467.008 826.261 z"/>
<path transform="translate(0,0)" fill="rgb(59,31,117)" d="M 411.911 800.119 C 409.021 798.979 406.833 798.469 404.814 796.176 L 405.092 794.334 C 408.342 791.731 412.988 792.214 416.817 793.512 C 419.801 794.523 420.125 797.475 421.06 800.232 L 419.364 810.855 C 414.48 823.352 407.072 824.706 394.894 828.034 C 396.702 825.932 400.99 821.315 402.458 819.317 C 407.8 816.208 410.278 805.84 411.911 800.119 z"/>
<path transform="translate(0,0)" fill="url(#Gradient2)" d="M 446.212 800.719 C 449.298 792.43 458.787 788.362 464.581 795.806 C 460.632 799.514 457.322 799.653 457.5 803.544 C 457.814 810.413 464.532 818.843 468.251 824.583 C 467.837 825.142 467.422 825.702 467.008 826.261 L 465.834 826.241 C 458.714 822.938 458.342 822.747 451.992 818.016 C 450.928 814.092 447.733 805.872 446.212 800.719 z"/>
<path transform="translate(0,0)" fill="rgb(59,31,117)" d="M 428.41 802.682 L 429.596 798.255 C 431.917 801.997 434.988 801.642 439.155 800.332 L 439.94 799.98 C 440.1 806.647 441.281 815.817 440.428 821.787 L 439.202 820.579 C 435.844 819.825 431.12 821.115 427.605 821.828 L 427.585 813.738 L 428.41 802.682 z"/>
<path transform="translate(0,0)" fill="rgb(52,23,75)" d="M 427.605 821.828 C 431.12 821.115 435.844 819.825 439.202 820.579 L 440.428 821.787 C 440.397 823.134 440.317 824.48 440.188 825.822 C 439.736 830.491 439.154 839.293 433 838.522 C 428.656 834.452 428.428 827.716 427.605 821.828 z"/>
<path transform="translate(0,0)" fill="rgb(173,150,204)" d="M 451.992 818.016 C 458.342 822.747 458.714 822.938 465.834 826.241 L 465.81 828.065 C 459.356 826.609 455.957 824.802 451.76 819.654 L 451.992 818.016 z"/>
<path transform="translate(0,0)" fill="rgb(152,219,243)" d="M 325.463 612.93 C 326.935 609.715 328.441 605.877 331.624 604.426 L 342.333 609.378 C 347.032 611.183 351.706 613.054 356.354 614.988 L 357.293 617.258 L 358.849 619.519 C 360.04 629.125 361.487 639.353 362.202 648.948 L 346.072 656.809 L 334.056 662.608 L 333.109 663.146 L 331.266 663.987 C 329.283 665.026 324.961 667.547 322.996 667.805 C 318.819 664.567 304.739 646.817 299.817 641.177 L 297.939 639.793 C 296.416 637.335 298.658 615.548 300.133 612.311 C 305.58 610.178 312.126 607.123 317.585 604.75 C 322.22 606.458 322.271 608.216 325.463 612.93 z"/>
<path transform="translate(0,0)" fill="rgb(201,202,245)" d="M 325.463 612.93 C 326.935 609.715 328.441 605.877 331.624 604.426 L 342.333 609.378 C 347.032 611.183 351.706 613.054 356.354 614.988 L 357.293 617.258 L 358.849 619.519 C 360.04 629.125 361.487 639.353 362.202 648.948 L 346.072 656.809 C 341.87 651.378 337.617 645.309 333.553 639.715 L 333.076 640.109 L 319.574 625.166 L 323.472 616.956 L 325.463 612.93 z"/>
<path transform="translate(0,0)" fill="rgb(78,122,201)" d="M 325.463 612.93 C 326.935 609.715 328.441 605.877 331.624 604.426 L 342.333 609.378 C 344.185 605.436 328.44 628.931 331.113 626.077 L 333.926 625.966 L 355.697 627.158 C 356.02 630.412 357.033 635.652 355.557 638.17 C 352.682 638.076 347.188 634.629 343.519 633.167 C 340.227 635.12 336.36 637.21 333.553 639.715 L 333.076 640.109 L 319.574 625.166 L 323.472 616.956 L 325.463 612.93 z"/>
<path transform="translate(0,0)" fill="rgb(112,118,213)" d="M 342.333 609.378 C 347.032 611.183 351.706 613.054 356.354 614.988 L 357.293 617.258 C 353.471 628.333 344.758 622.669 333.926 625.966 L 331.113 626.077 C 328.44 628.931 344.185 605.436 342.333 609.378 z"/>
<path transform="translate(0,0)" fill="rgb(112,118,213)" d="M 316.137 629.88 C 321.853 638.955 328.935 657.247 333.109 663.146 L 331.266 663.987 C 329.283 665.026 324.961 667.547 322.996 667.805 C 318.819 664.567 304.739 646.817 299.817 641.177 L 302.945 639.277 C 306.908 635.6 311.588 632.812 316.137 629.88 z"/>
<path transform="translate(0,0)" fill="rgb(154,116,204)" d="M 302.945 639.277 C 306.228 643.729 309.463 648.217 312.649 652.739 C 316.561 650.179 315.785 649.883 319.895 649.646 C 324.828 652.228 325.609 658.528 331.266 663.987 C 329.283 665.026 324.961 667.547 322.996 667.805 C 318.819 664.567 304.739 646.817 299.817 641.177 L 302.945 639.277 z"/>
<path transform="translate(0,0)" fill="rgb(172,199,247)" d="M 302.945 639.277 C 306.228 643.729 309.463 648.217 312.649 652.739 C 315.466 656.137 322.725 663.812 322.996 667.805 C 318.819 664.567 304.739 646.817 299.817 641.177 L 302.945 639.277 z"/>
<path transform="translate(0,0)" fill="rgb(220,228,244)" d="M 300.133 612.311 C 305.58 610.178 312.126 607.123 317.585 604.75 C 322.22 606.458 322.271 608.216 325.463 612.93 L 323.472 616.956 L 319.574 625.166 L 316.336 624.591 L 310.49 620.041 C 305.531 617.275 303.81 616.531 300.133 612.311 z"/>
<path transform="translate(0,0)" fill="rgb(194,223,243)" d="M 310.49 620.041 C 314.335 619.392 319.632 617.919 323.472 616.956 L 319.574 625.166 L 316.336 624.591 L 310.49 620.041 z"/>
<path transform="translate(0,0)" fill="rgb(172,199,247)" d="M 300.133 612.311 C 303.81 616.531 305.531 617.275 310.49 620.041 L 316.336 624.591 C 313.012 629.066 303.586 633.536 297.939 639.793 C 296.416 637.335 298.658 615.548 300.133 612.311 z"/>
<path transform="translate(0,0)" fill="rgb(78,122,201)" d="M 333.076 640.109 L 333.553 639.715 C 337.617 645.309 341.87 651.378 346.072 656.809 L 334.056 662.608 C 334.314 656.703 333.444 646.381 333.076 640.109 z"/>
<path transform="translate(0,0)" fill="url(#Gradient1)" d="M 420.222 729.03 C 423.508 721.999 429.165 703.989 433.411 701.004 L 435.073 701.392 C 437.78 706.457 436.323 713.276 437.948 714.256 C 441.917 716.649 446.762 728.264 448.592 732.749 C 452.6 740 459.579 749.4 464.62 755.938 C 448.852 761.497 444.095 760.375 433.869 773.914 C 413.624 758.878 405.864 752.252 420.222 729.03 z"/>
<path transform="translate(0,0)" fill="rgb(105,50,111)" d="M 420.222 729.03 C 423.508 721.999 429.165 703.989 433.411 701.004 L 435.073 701.392 C 437.78 706.457 436.323 713.276 437.948 714.256 C 441.917 716.649 446.762 728.264 448.592 732.749 L 445.511 734.298 C 444.449 734.293 442.11 734.289 441.407 733.689 C 435.963 729.041 423.79 730.928 420.222 729.03 z"/>
<path transform="translate(0,0)" fill="rgb(173,150,204)" d="M 341.759 591.762 C 348.074 588.552 355.387 591.144 360.66 595.385 C 361.649 598.95 361.158 598.437 360.091 602.468 C 358.789 609.616 358.809 612.395 358.849 619.519 L 357.293 617.258 L 356.354 614.988 C 351.706 613.054 347.032 611.183 342.333 609.378 L 331.624 604.426 C 333.216 603.873 334.787 602.72 336.229 601.789 L 332.964 597.437 C 336.712 595.388 338.337 594.324 341.759 591.762 z"/>
<path transform="translate(0,0)" fill="rgb(247,232,243)" d="M 341.759 591.762 C 348.074 588.552 355.387 591.144 360.66 595.385 C 361.649 598.95 361.158 598.437 360.091 602.468 C 354.999 599.485 350.155 597.029 344.914 594.367 L 341.759 591.762 z"/>
<path transform="translate(0,0)" fill="rgb(220,228,244)" d="M 332.964 597.437 C 336.712 595.388 338.337 594.324 341.759 591.762 L 344.914 594.367 L 336.229 601.789 L 332.964 597.437 z"/>
<path transform="translate(0,0)" fill="rgb(201,202,245)" d="M 317.585 604.75 L 332.964 597.437 L 336.229 601.789 C 334.787 602.72 333.216 603.873 331.624 604.426 C 328.441 605.877 326.935 609.715 325.463 612.93 C 322.271 608.216 322.22 606.458 317.585 604.75 z"/>
<path transform="translate(0,0)" fill="rgb(23,22,24)" d="M 1259.79 533.401 C 1263.44 533.192 1267.36 533.371 1270.99 533.732 C 1285.11 535.045 1298.07 542.089 1306.86 553.219 C 1338.95 593.258 1320.85 687.034 1255.74 676 C 1237.43 672.895 1231.16 664.673 1220.61 650.953 C 1219.61 662.361 1220.09 678.502 1220.11 690.269 L 1220.13 725.63 L 1193.57 725.494 C 1191.99 663.606 1193.3 598.173 1193.08 535.937 L 1219.8 535.652 L 1220 558.962 C 1222.12 556.114 1224.3 553.299 1226.51 550.518 C 1236.37 538.304 1244.84 534.989 1259.79 533.401 z M 1262.12 653.75 C 1268.54 652.36 1274.49 650.605 1279.23 645.936 C 1305.82 619.71 1299.72 553.151 1252.5 556.318 C 1204.16 565.314 1210.59 658.438 1262.12 653.75 z"/>
<path transform="translate(0,0)" fill="rgb(23,22,24)" d="M 1405.95 533.402 C 1444.39 531.971 1470.43 554.72 1474.76 592.649 C 1479.7 635.875 1461.85 671.301 1415.78 676.831 C 1398.78 677.434 1383.3 674.644 1369.75 663.532 C 1331.64 632.276 1336.74 552.457 1387.77 536.541 C 1394.25 534.519 1399.29 533.974 1405.95 533.402 z M 1416.1 653.821 C 1425.84 651.749 1434.55 647.147 1439.7 638.272 C 1456.98 608.511 1449.51 552.293 1405.06 556.163 C 1394.92 558.174 1386.05 562.563 1380.82 571.792 C 1363.59 602.172 1371.63 657.608 1416.1 653.821 z"/>
<path transform="translate(0,0)" fill="rgb(23,22,24)" d="M 869.534 484.359 C 908.503 480.075 939.119 495.12 946.344 535.89 L 919.155 535.942 C 913.158 513.449 899.408 507.205 876.488 507.735 C 868.611 507.917 852.754 511.805 848.195 519.211 C 823.314 558.716 879.769 564.305 906.864 571.92 C 947.65 583.381 960.22 621.849 935.118 656.138 C 925.249 669.619 902.621 675.304 885.758 676.171 C 843.96 676.796 816.534 665.675 808.841 620.874 L 835.915 620.824 C 845.103 647.905 859.146 652.739 887.106 652.069 C 916.493 651.366 933.161 615.576 905.939 600.743 C 877.725 585.371 821.179 589.085 815.144 546.187 C 809.88 508.763 835.152 488.534 869.534 484.359 z"/>
<path transform="translate(0,0)" fill="rgb(23,22,24)" d="M 1731.78 533.46 C 1733 533.418 1734.23 533.399 1735.45 533.4 C 1784.07 533.516 1798.24 569.372 1798.05 611.148 L 1698.01 611.218 C 1699.36 624.617 1701.23 635.413 1711.56 645.734 C 1723.12 657.795 1751.78 658.277 1762.37 645.177 C 1768.54 637.547 1766.37 636.761 1776.82 636.222 C 1783.59 636.264 1789.73 636.679 1796.47 637.136 C 1787.93 660.442 1773.23 673.283 1747.86 676.082 C 1728.64 678.287 1710.5 675.538 1694.82 663.178 C 1665.31 639.929 1664.19 582.293 1687.29 554.375 C 1698.93 540.319 1713.85 534.943 1731.78 533.46 z M 1698.38 592.229 C 1712.09 592.011 1725.79 591.923 1739.5 591.963 L 1771.74 591.885 C 1767.11 569.928 1757.37 553.253 1731.91 555.172 C 1709.35 559.833 1702.62 570.929 1698.38 592.229 z"/>
<path transform="translate(0,0)" fill="rgb(23,22,24)" d="M 1043.52 533.344 C 1068.05 531.42 1089.18 543.11 1094.48 568.357 C 1097.65 583.417 1096.78 600.178 1096.8 615.598 C 1096.85 635.07 1096.8 654.543 1096.64 674.015 L 1070.08 673.977 C 1069.84 655.393 1070.34 637.07 1070.18 618.133 C 1070.01 596.572 1074.11 560.652 1044.48 556.742 C 1032.58 555.172 1025.4 557.309 1015.96 564.52 C 1011.54 569.426 1006.9 576.344 1006.23 582.851 C 1003.34 610.791 1004.89 645.767 1004.76 674.033 L 977.487 674.005 C 976.816 628.918 977.389 581.185 977.516 535.971 L 1003.68 535.851 L 1003.85 559.431 C 1015.45 542.116 1022.14 535.887 1043.52 533.344 z"/>
<path transform="translate(0,0)" fill="rgb(23,22,24)" d="M 1521.74 499.453 L 1537.86 499.413 C 1537.96 511.673 1537.98 523.69 1538.7 535.941 L 1567 535.987 L 1567.08 556.853 L 1538.23 556.988 C 1537.46 580.504 1537.96 604.668 1538.06 628.222 C 1538.16 651.462 1545.73 653.82 1565.55 652.846 C 1566.49 657.687 1568.6 668.88 1568.5 673.386 C 1553.68 676.87 1532.82 677.162 1521.26 665.897 C 1506.77 651.766 1510.69 624.083 1510.78 604.925 C 1510.76 588.988 1510.6 573.051 1510.31 557.116 L 1490.24 556.944 L 1490.15 535.952 C 1496.97 535.92 1503.79 535.798 1510.61 535.585 C 1510.62 524.817 1510.27 511.261 1511.14 500.739 C 1513.2 499.513 1519 499.578 1521.74 499.453 z"/>
<path transform="translate(0,0)" fill="rgb(23,22,24)" d="M 1616.66 499.488 L 1624.08 499.717 C 1624.05 511.786 1624.11 523.855 1624.27 535.924 L 1651.98 535.876 L 1651.95 556.858 L 1624.11 556.933 C 1623.97 582.971 1623.18 610.824 1624.54 636.821 C 1625.42 653.567 1638.12 653.283 1651.22 652.923 C 1652.26 659.497 1653.06 666.763 1653.93 673.417 L 1644.72 675.186 C 1641.85 675.364 1638.99 675.478 1636.12 675.526 C 1591.2 676.001 1596.3 637.363 1596.61 605.591 C 1596.75 589.389 1596.77 573.185 1596.68 556.983 L 1577.11 556.722 L 1577.08 536.02 L 1596.79 535.861 C 1596.35 524.024 1596.61 511.898 1596.72 500.034 L 1616.66 499.488 z"/>
<path transform="translate(0,0)" fill="rgb(23,22,24)" d="M 1885.82 533.371 C 1892.28 533.174 1894.58 533.297 1900.96 534.293 L 1900.93 559.813 C 1893.29 558.748 1886.18 557.453 1878.52 559.841 C 1849.85 568.776 1853.56 599.625 1853.72 623.175 C 1853.83 640.554 1853.91 657.047 1853.89 673.915 C 1847.6 673.887 1831.73 675.472 1827.01 672.736 L 1826.68 669.25 L 1826.5 535.97 L 1852.6 535.711 C 1853.03 543.422 1852.79 553.513 1852.83 561.405 C 1861.56 545.511 1866.48 536.063 1885.82 533.371 z"/>
<path transform="translate(0,0)" fill="rgb(23,22,24)" d="M 1131.14 536.527 C 1139.77 536.12 1149.03 536.216 1157.71 536.159 C 1158.62 581.114 1158.05 628.765 1158.26 673.968 L 1131.31 674.004 C 1131.57 628.179 1131.52 582.352 1131.14 536.527 z"/>
<path transform="translate(0,0)" fill="rgb(23,22,24)" d="M 1139.56 479.349 C 1148.28 476.569 1157.6 481.403 1160.35 490.133 C 1163.11 498.863 1158.24 508.167 1149.5 510.89 C 1140.8 513.6 1131.55 508.763 1128.81 500.073 C 1126.07 491.383 1130.88 482.116 1139.56 479.349 z"/>
</svg>