<svg xmlns="http://www.w3.org/2000/svg" viewBox="0 0 32 32">
  <defs>
    <linearGradient id="g" x1="0" y1="0" x2="32" y2="32" gradientUnits="userSpaceOnUse">
      <stop offset="0" stop-color="#8b5cf6"/>
      <stop offset="1" stop-color="#d946ef"/>
    </linearGradient>
  </defs>
  <rect width="32" height="32" rx="7" fill="url(#g)"/>
  <path d="M11 9.5h10a1.5 1.5 0 0 1 1.5 1.5v12a1.5 1.5 0 0 1-1.5 1.5H11A1.5 1.5 0 0 1 9.5 23V11A1.5 1.5 0 0 1 11 9.5Z" fill="none" stroke="#fff" stroke-width="1.6"/>
  <path d="M13 9.5V8a1.5 1.5 0 0 1 1.5-1.5h3A1.5 1.5 0 0 1 19 8v1.5" fill="none" stroke="#fff" stroke-width="1.6" stroke-linecap="round"/>
  <path d="M12.5 14h7M12.5 17h7M12.5 20h4.5" stroke="#fff" stroke-width="1.4" stroke-linecap="round"/>
</svg>
